PathFileType	4	(X/Y/Z)	 s05c0103.trc
DataRate	CameraRate	NumFrames	NumMarkers	Units	OrigDataRate	OrigDataStartFrame	OrigNumFrames
200	200	4	49	mm	200	1501	2000
Frame#	Time	racr			lacr			c7			jug			rlel			rdr			llel			ldr			s2			lic			ric			lasi			rasi			rpsi			lpsi			rgt			lgt			rth1			rth2			rth3			rth4			rlfc			rsh1			rsh2			rsh3			rsh4			rlmal			rmmal			rcal			rtoe			rmt5			lth1			lth2			lth4			lth3			llfc			lmfc			lsh1			lsh2			lsh3			lsh4			llmal			lmmal			lcal			ltoe			lmt5			SBIKE			LBIKE			RBIKE			
		X1	Y1	Z1	X2	Y2	Z2	X3	Y3	Z3	X4	Y4	Z4	X5	Y5	Z5	X6	Y6	Z6	X7	Y7	Z7	X8	Y8	Z8	X9	Y9	Z9	X10	Y10	Z10	X11	Y11	Z11	X12	Y12	Z12	X13	Y13	Z13	X14	Y14	Z14	X15	Y15	Z15	X16	Y16	Z16	X17	Y17	Z17	X18	Y18	Z18	X19	Y19	Z19	X20	Y20	Z20	X21	Y21	Z21	X22	Y22	Z22	X23	Y23	Z23	X24	Y24	Z24	X25	Y25	Z25	X26	Y26	Z26	X27	Y27	Z27	X28	Y28	Z28	X29	Y29	Z29	X30	Y30	Z30	X31	Y31	Z31	X32	Y32	Z32	X33	Y33	Z33	X34	Y34	Z34	X35	Y35	Z35	X36	Y36	Z36	X37	Y37	Z37	X38	Y38	Z38	X39	Y39	Z39	X40	Y40	Z40	X41	Y41	Z41	X42	Y42	Z42	X43	Y43	Z43	X44	Y44	Z44	X45	Y45	Z45	X46	Y46	Z46	X47	Y47	Z47	X48	Y48	Z48	X49	Y49	Z49	
1501	7.5050	492.912095	1265.900114	-167.762526	487.521517	1249.684945	-407.330165	474.747477	1324.710974	-295.362164	411.876149	1176.840075	-282.503262	516.007258	1067.764149	23.509550	694.766922	933.782042	-65.238394	493.262271	1030.674540	-596.924312	691.830837	926.345836	-465.874322	-110.831918	1169.953469	-256.766432	20.713905	1178.802199	-407.345925	40.892719	1199.164388	-122.070684	70.949488	1129.137994	-372.749078	83.995585	1139.201701	-149.808318	-75.387316	1219.861897	-218.996085	-76.028809	1218.382311	-304.682951	-1.122763	1058.128380	-91.630813	-25.290445	1080.153232	-429.743226	96.293879	970.760249	-87.430349	170.912934	923.014419	-95.508938	209.878483	844.977700	-107.271270	196.238568	947.719739	-105.935676	310.204014	739.462075	-140.311614	265.936579	638.851247	-104.312812	277.522135	550.950290	-111.559659	247.112675	470.838350	-109.178796	304.226236	549.127983	-139.175235	232.169913	336.628279	-107.866291	238.474480	363.223338	-189.013971	165.650802	293.227171	-149.993610	461.555019	308.261094	-148.575019	363.916950	275.317111	-82.904763	96.064228	996.962719	-441.305420	180.590565	981.787891	-435.295273	196.149439	1011.640392	-418.392305	248.323866	921.352462	-433.190237	355.328689	824.695964	-398.122133	330.608980	806.064174	-293.507028	266.385422	740.029097	-432.872303	224.961220	663.358311	-427.316333	149.220073	616.824947	-434.255476	245.960650	643.755636	-401.420659	75.355732	529.792913	-438.280850	NaN	NaN	NaN	8.755820	556.838619	-396.882411	147.897807	296.854767	-388.614254	72.878591	373.731191	-456.951831	-214.758807	912.220319	-267.089639	-43.527416	84.931647	-474.577129	-51.767338	80.018139	-77.107103	
1502	7.5100	493.636710	1266.356753	-169.690393	486.470030	1249.832493	-409.268307	474.844075	1325.061646	-297.363222	411.368234	1177.516162	-283.794993	516.927702	1068.774725	22.673033	695.288875	933.561138	-65.446253	492.818722	1029.771186	-597.364465	691.823242	926.528606	-465.909878	-109.671427	1169.959234	-253.797457	20.085904	1180.452388	-405.894981	42.902215	1198.651982	-120.423331	70.701515	1130.937277	-371.745910	85.647474	1138.659247	-148.585594	-74.199923	1219.785056	-216.316767	-75.927141	1219.233618	-301.891364	-0.057990	1056.485126	-90.718541	-25.420217	1082.675106	-428.658901	95.560965	967.012604	-86.885954	168.575958	916.983621	-95.131040	204.924950	837.586773	-107.131042	194.715489	940.835854	-105.643630	302.535840	729.619788	-140.069063	259.635390	629.139617	-103.380050	271.772505	541.387438	-110.764557	242.206943	460.935273	-108.167850	298.180212	539.805422	-138.647378	228.976011	326.567549	-107.073442	234.547056	352.905196	-188.232106	161.345312	284.179074	-147.847448	458.219353	297.437750	-149.435195	360.936025	265.058322	-83.022785	96.924147	1001.303357	-440.920982	181.812945	987.813476	-434.790412	196.635514	1018.099612	-417.805747	250.827560	929.127788	-433.174831	359.663569	833.986459	-398.463591	335.176704	814.915393	-293.799239	270.044410	749.905108	-432.988576	228.534948	673.501800	-427.510147	152.266274	627.303746	-433.906145	249.506519	653.291460	-402.058165	77.903586	540.417802	-438.179531	NaN	NaN	NaN	11.026153	567.129118	-396.666016	151.644353	308.051939	-388.604192	76.159235	384.446216	-456.724603	-214.677920	912.310856	-267.026005	-43.497107	84.998795	-474.611331	-51.744141	80.041628	-77.110802	
1503	7.5150	494.311495	1266.642696	-171.540693	485.466811	1250.047917	-411.221307	475.350090	1325.543025	-299.183016	410.348026	1178.709072	-285.166518	517.792700	1069.661315	21.749638	695.774200	933.262367	-65.749033	492.256997	1028.844209	-597.745817	691.747090	926.718060	-465.909371	-108.879284	1170.729092	-251.218438	19.241570	1182.035192	-404.029097	44.766294	1198.262777	-118.939028	70.361402	1132.666049	-370.545903	87.141889	1138.233254	-147.634013	-72.890764	1219.948932	-213.647437	-75.258913	1220.123928	-299.178471	0.813477	1055.162931	-89.988673	-25.399026	1085.487978	-427.690774	94.574185	963.537535	-86.432633	165.849956	911.138486	-94.688396	199.656674	830.494363	-106.735099	192.760177	934.070219	-105.875018	294.566764	720.396670	-139.579048	253.046982	620.043194	-102.221291	265.610065	532.436179	-109.879705	236.778689	451.778541	-106.896410	291.990583	531.218346	-138.258379	225.277700	316.994316	-106.075707	230.171112	343.064987	-187.340506	157.295386	274.908069	-146.432698	454.170439	286.840705	-150.349912	357.350276	254.940375	-83.174304	97.843262	1006.187395	-440.457187	182.915309	994.392554	-434.339400	197.177392	1024.904352	-417.139772	253.171034	937.136213	-433.125419	363.810733	843.628030	-398.966965	339.787472	823.939269	-294.215279	273.710876	760.011244	-433.092802	231.438027	683.653721	-427.062196	155.421223	637.896342	-433.668163	253.094229	663.292232	-402.623023	80.513076	550.931781	-437.971879	NaN	NaN	NaN	13.316870	577.037901	-396.497950	156.164506	319.193742	-388.391966	80.047849	395.040992	-456.549756	-214.624496	912.374081	-266.988928	-43.481953	85.032001	-474.607283	-51.730583	80.037608	-77.106989	
1504	7.5200	495.051085	1266.889761	-173.369533	484.611413	1250.313570	-413.173009	475.475003	1325.827529	-301.040360	410.060462	1179.228474	-286.528771	518.728322	1070.445824	20.695771	696.210759	932.916395	-66.149387	491.673041	1027.991750	-598.016387	691.671150	926.909163	-466.060318	-108.189906	1171.517868	-248.905245	18.658193	1183.927916	-402.559792	46.761395	1197.838451	-117.445703	70.137505	1134.517991	-369.471743	88.885372	1138.113554	-146.638495	-71.661555	1220.003085	-211.092669	-74.240156	1220.798624	-296.799491	1.579964	1053.768417	-89.466260	-25.290757	1088.730928	-426.971832	93.191244	960.287989	-85.621187	162.781139	905.426263	-93.924312	193.410805	823.644382	-106.669472	190.460418	927.781796	-105.291180	286.431960	711.769455	-138.735169	246.072837	611.693549	-100.931164	259.170491	524.136494	-108.856639	231.012353	443.308737	-105.488174	285.170411	523.072656	-137.571857	221.066518	308.120490	-104.994095	225.350233	333.676357	-186.323397	152.697040	266.320689	-144.705793	449.554402	276.275667	-151.320176	353.236518	245.245749	-83.278054	98.615080	1011.555182	-440.077595	183.921258	1001.373870	-433.909655	197.501803	1032.158078	-416.563619	255.355576	945.517983	-433.264722	367.734157	853.621878	-399.784838	344.420769	833.124012	-294.628574	277.448936	770.326798	-433.203376	234.863460	694.083483	-427.259555	158.614880	648.594071	-433.290790	256.819086	673.399774	-403.451566	83.141482	561.294958	-437.592765	NaN	NaN	NaN	15.620926	586.621442	-396.291854	161.342241	330.337444	-388.170237	84.468617	405.402835	-456.371422	-214.595654	912.418797	-266.927614	-43.471885	85.082028	-474.601014	-51.723408	80.063133	-77.106937	
